<svg xmlns="http://www.w3.org/2000/svg" width="140" height="140"><path fill="#ffeb5a" d="M130.135 102.061c-16.734-2.75-24.272-19.898-24.582-20.624-.023-.05-.048-.098-.072-.145-.854-1.73-1.049-3.161-.588-4.252.914-2.146 4.421-3.255 6.735-3.99.676-.21 1.308-.412 1.837-.616 2.281-.901 3.915-1.877 4.992-2.986 1.289-1.319 1.536-2.585 1.52-3.413-.04-2.003-1.574-3.785-4.02-4.657-.822-.343-1.77-.52-2.723-.52-.653 0-1.619.089-2.533.516-1.96.913-3.717 1.411-5.221 1.484-.794-.042-1.358-.217-1.725-.38.043-.783.095-1.584.151-2.421l.019-.357c.537-8.472 1.205-19.016-1.598-25.278-1.916-4.285-4.487-7.971-7.652-10.962-2.656-2.507-5.737-4.535-9.164-6.038-5.964-2.608-11.526-2.998-14.309-2.998h-.004c-.111 0-.211 0-.307.003l-2.15.019c-2.778 0-8.346.392-14.316 3.022a31.885 31.885 0 0 0-9.128 6.037c-3.149 2.982-5.719 6.659-7.626 10.929-2.799 6.258-2.135 16.794-1.602 25.262v.011c.06.904.118 1.853.174 2.775-.413.187-1.073.385-2.055.385-1.58 0-3.455-.502-5.578-1.494-.624-.291-1.341-.435-2.123-.435-1.262 0-2.592.37-3.749 1.046-1.456.852-2.394 2.053-2.648 3.387-.167.881-.159 2.628 1.781 4.393 1.069.97 2.64 1.867 4.664 2.668.532.204 1.16.407 1.833.616 2.313.735 5.824 1.845 6.738 3.994.465 1.087.267 2.518-.588 4.25-.024.05-.049.096-.068.144-.215.497-2.207 5.004-6.302 9.757-2.321 2.698-4.882 4.959-7.605 6.708-3.319 2.144-6.913 3.543-10.682 4.161a2.924 2.924 0 0 0-2.45 3.05c.021.427.127.856.299 1.272l.004.01c.601 1.392 1.988 2.576 4.238 3.623 2.759 1.274 6.873 2.348 12.244 3.191.271.511.554 1.805.748 2.689.203.94.418 1.906.721 2.934.325 1.113 1.177 2.443 3.354 2.443.827 0 1.781-.183 2.879-.398 1.609-.316 3.816-.748 6.567-.748 1.521 0 3.109.135 4.699.399 3.069.507 5.709 2.371 8.771 4.529 4.48 3.159 9.546 6.729 17.294 6.729.211 0 .423-.004.632-.022.255.012.573.022.907.022 7.748 0 12.817-3.574 17.29-6.729l.008-.006c3.058-2.154 5.702-4.015 8.767-4.522a28.82 28.82 0 0 1 4.7-.399c2.627 0 4.707.334 6.567.696 1.212.238 2.154.353 2.878.353h.143c1.594 0 2.767-.873 3.216-2.401a41.45 41.45 0 0 0 .716-2.906c.183-.827.474-2.155.744-2.678 5.375-.841 9.489-1.91 12.248-3.188 2.247-1.04 3.63-2.224 4.229-3.611.185-.416.286-.848.312-1.287a2.92 2.92 0 0 0-2.451-3.046z"/><path fill="#ffeb5a" d="M130.135 102.061c-16.734-2.75-24.272-19.898-24.582-20.624-.023-.05-.048-.098-.072-.145-.854-1.73-1.049-3.161-.588-4.252.914-2.146 4.421-3.255 6.735-3.99.676-.21 1.308-.412 1.837-.616 2.281-.901 3.915-1.877 4.992-2.986 1.289-1.319 1.536-2.585 1.52-3.413-.04-2.003-1.574-3.785-4.02-4.657-.822-.343-1.77-.52-2.723-.52-.653 0-1.619.089-2.533.516-1.96.913-3.717 1.411-5.221 1.484-.794-.042-1.358-.217-1.725-.38.043-.783.095-1.584.151-2.421l.019-.357c.537-8.472 1.205-19.016-1.598-25.278-1.916-4.285-4.487-7.971-7.652-10.962-2.656-2.507-5.737-4.535-9.164-6.038-5.964-2.608-11.526-2.998-14.309-2.998h-.004c-.111 0-.211 0-.307.003l-2.15.019c-2.778 0-8.346.392-14.316 3.022a31.885 31.885 0 0 0-9.128 6.037c-3.149 2.982-5.719 6.659-7.626 10.929-2.799 6.258-2.135 16.794-1.602 25.262v.011c.06.904.118 1.853.174 2.775-.413.187-1.073.385-2.055.385-1.58 0-3.455-.502-5.578-1.494-.624-.291-1.341-.435-2.123-.435-1.262 0-2.592.37-3.749 1.046-1.456.852-2.394 2.053-2.648 3.387-.167.881-.159 2.628 1.781 4.393 1.069.97 2.64 1.867 4.664 2.668.532.204 1.16.407 1.833.616 2.313.735 5.824 1.845 6.738 3.994.465 1.087.267 2.518-.588 4.25-.024.05-.049.096-.068.144-.215.497-2.207 5.004-6.302 9.757-2.321 2.698-4.882 4.959-7.605 6.708-3.319 2.144-6.913 3.543-10.682 4.161a2.924 2.924 0 0 0-2.45 3.05c.021.427.127.856.299 1.272l.004.01c.601 1.392 1.988 2.576 4.238 3.623 2.759 1.274 6.873 2.348 12.244 3.191.271.511.554 1.805.748 2.689.203.94.418 1.906.721 2.934.325 1.113 1.177 2.443 3.354 2.443.827 0 1.781-.183 2.879-.398 1.609-.316 3.816-.748 6.567-.748 1.521 0 3.109.135 4.699.399 3.069.507 5.709 2.371 8.771 4.529 4.48 3.159 9.546 6.729 17.294 6.729.211 0 .423-.004.632-.022.255.012.573.022.907.022 7.748 0 12.817-3.574 17.29-6.729l.008-.006c3.058-2.154 5.702-4.015 8.767-4.522a28.82 28.82 0 0 1 4.7-.399c2.627 0 4.707.334 6.567.696 1.212.238 2.154.353 2.878.353h.143c1.594 0 2.767-.873 3.216-2.401a41.45 41.45 0 0 0 .716-2.906c.183-.827.474-2.155.744-2.678 5.375-.841 9.489-1.91 12.248-3.188 2.247-1.04 3.63-2.224 4.229-3.611.185-.416.286-.848.312-1.287a2.92 2.92 0 0 0-2.451-3.046z"/><path fill="#fff19c" d="m70 14.436-1.258.011c-2.778 0-8.346.392-14.316 3.022a31.885 31.885 0 0 0-9.128 6.037c-3.149 2.982-5.719 6.659-7.626 10.929-2.799 6.258-2.135 16.794-1.602 25.262v.011c.06.904.118 1.853.174 2.775-.413.187-1.073.385-2.055.385-1.58 0-3.455-.502-5.578-1.494-.624-.291-1.341-.435-2.123-.435-1.262 0-2.592.37-3.749 1.046-1.456.852-2.394 2.053-2.648 3.387-.167.881-.159 2.628 1.781 4.393 1.069.97 2.64 1.867 4.664 2.668.532.204 1.16.407 1.833.616 2.313.735 5.824 1.845 6.738 3.994.465 1.087.267 2.518-.588 4.25-.024.05-.049.096-.068.144-.215.497-2.207 5.004-6.302 9.757-2.321 2.698-4.882 4.959-7.605 6.708-3.319 2.144-6.913 3.543-10.682 4.161a2.924 2.924 0 0 0-2.45 3.05c.021.427.127.856.299 1.272l.004.01c.601 1.392 1.988 2.576 4.238 3.623 2.759 1.274 6.873 2.348 12.244 3.191.271.511.554 1.805.748 2.689.203.94.418 1.906.721 2.934.325 1.113 1.177 2.443 3.354 2.443.827 0 1.781-.183 2.879-.398 1.609-.316 3.816-.748 6.567-.748 1.521 0 3.109.135 4.699.399 3.069.507 5.709 2.371 8.771 4.529 4.48 3.159 9.546 6.729 17.294 6.729.211 0 .423-.004.632-.022l.138.005V14.436z"/><path fill="#fff" d="m103.926 65.129-.019.357c-.057.837-.108 1.638-.151 2.421.366.164.931.339 1.725.38 1.504-.073 3.261-.57 5.221-1.484.914-.426 1.88-.516 2.533-.516.953 0 1.9.178 2.723.52 1.29.46 2.316 1.178 3.014 2.042.837-1.096 1.02-2.113 1.006-2.813-.04-2.003-1.574-3.785-4.02-4.657-.822-.343-1.77-.52-2.723-.52-.653 0-1.619.089-2.533.516-1.96.913-3.717 1.411-5.221 1.484a5.152 5.152 0 0 1-1.398-.254c-.052.856-.104 1.702-.157 2.524zM7.715 106.396c.231.536.582 1.041 1.053 1.52a2.895 2.895 0 0 1 1.095-.424c3.769-.618 7.362-2.018 10.682-4.16 2.724-1.75 5.284-4.01 7.605-6.709 4.095-4.753 6.087-9.259 6.302-9.756.02-.048.044-.093.068-.144.854-1.73 1.053-3.162.588-4.249a3.49 3.49 0 0 0-.672-1c-.266.611-2.255 5.042-6.286 9.722-2.321 2.698-4.882 4.959-7.605 6.708-3.319 2.144-6.913 3.543-10.682 4.161a2.924 2.924 0 0 0-2.45 3.05c.021.427.127.856.299 1.272l.003.009zM105.566 81.467a3.515 3.515 0 0 0-.674 1.001c-.461 1.091-.267 2.522.588 4.252.024.048.049.095.072.145.31.726 7.848 17.873 24.582 20.624.402.066.769.216 1.093.421.468-.477.818-.98 1.049-1.515.185-.416.286-.848.312-1.287a2.921 2.921 0 0 0-2.453-3.047c-16.599-2.728-24.146-19.611-24.569-20.594zM22.739 67.415c1.157-.677 2.487-1.046 3.749-1.046.782 0 1.499.144 2.123.434 2.123.991 3.998 1.494 5.578 1.494.981 0 1.642-.198 2.055-.385-.056-.923-.114-1.872-.174-2.775v-.012c-.053-.819-.104-1.662-.154-2.514-.409.139-.971.257-1.727.257-1.58 0-3.455-.502-5.578-1.494-.624-.291-1.341-.435-2.123-.435-1.262 0-2.592.37-3.749 1.046-1.456.852-2.394 2.053-2.648 3.387-.138.726-.138 2.043.946 3.471a6.31 6.31 0 0 1 1.702-1.428zM37.672 39.862c1.907-4.27 4.477-7.946 7.626-10.929a31.927 31.927 0 0 1 9.128-6.037c5.971-2.629 11.538-3.022 14.316-3.022.111 0 1.379-.014 2.15-.02.096-.002.195-.002.307-.002h.004c2.782 0 8.345.39 14.309 2.998 3.427 1.502 6.508 3.53 9.164 6.037 3.165 2.991 5.736 6.677 7.652 10.962 1.352 3.021 1.892 7.039 2.033 11.339.174-6.237-.122-12.497-2.033-16.767-1.916-4.285-4.487-7.971-7.652-10.962-2.656-2.507-5.737-4.535-9.164-6.038-5.964-2.608-11.526-2.998-14.309-2.998h-.004c-.111 0-.211 0-.307.003l-2.15.019c-2.778 0-8.346.392-14.316 3.022a31.885 31.885 0 0 0-9.128 6.037c-3.149 2.982-5.719 6.659-7.626 10.929-1.911 4.273-2.207 10.541-2.033 16.782.14-4.303.68-8.328 2.033-11.353z"/><path fill="none" stroke="#33363a" stroke-linecap="round" stroke-linejoin="round" stroke-miterlimit="10" stroke-width="3" d="M130.135 102.061c-16.734-2.75-24.272-19.898-24.582-20.624-.023-.05-.048-.098-.072-.145-.854-1.73-1.049-3.161-.588-4.252.914-2.146 4.421-3.255 6.735-3.99.676-.21 1.308-.412 1.837-.616 2.281-.901 3.915-1.877 4.992-2.986 1.289-1.319 1.536-2.585 1.52-3.413-.04-2.003-1.574-3.785-4.02-4.657-.822-.343-1.77-.52-2.723-.52-.653 0-1.619.089-2.533.516-1.96.913-3.717 1.411-5.221 1.484-.794-.042-1.358-.217-1.725-.38.043-.783.095-1.584.151-2.421l.019-.357c.537-8.472 1.205-19.016-1.598-25.278-1.916-4.285-4.487-7.971-7.652-10.962-2.656-2.507-5.737-4.535-9.164-6.038-5.964-2.608-11.526-2.998-14.309-2.998h-.004c-.111 0-.211 0-.307.003l-2.15.019c-2.778 0-8.346.392-14.316 3.022a31.885 31.885 0 0 0-9.128 6.037c-3.149 2.982-5.719 6.659-7.626 10.929-2.799 6.258-2.135 16.794-1.602 25.262v.011c.06.904.118 1.853.174 2.775-.413.187-1.073.385-2.055.385-1.58 0-3.455-.502-5.578-1.494-.624-.291-1.341-.435-2.123-.435-1.262 0-2.592.37-3.749 1.046-1.456.852-2.394 2.053-2.648 3.387-.167.881-.159 2.628 1.781 4.393 1.069.97 2.64 1.867 4.664 2.668.532.204 1.16.407 1.833.616 2.313.735 5.824 1.845 6.738 3.994.465 1.087.267 2.518-.588 4.25-.024.05-.049.096-.068.144-.215.497-2.207 5.004-6.302 9.757-2.321 2.698-4.882 4.959-7.605 6.708-3.319 2.144-6.913 3.543-10.682 4.161a2.924 2.924 0 0 0-2.45 3.05c.021.427.127.856.299 1.272l.004.01c.601 1.392 1.988 2.576 4.238 3.623 2.759 1.274 6.873 2.348 12.244 3.191.271.511.554 1.805.748 2.689.203.94.418 1.906.721 2.934.325 1.113 1.177 2.443 3.354 2.443.827 0 1.781-.183 2.879-.398 1.609-.316 3.816-.748 6.567-.748 1.521 0 3.109.135 4.699.399 3.069.507 5.709 2.371 8.771 4.529 4.48 3.159 9.546 6.729 17.294 6.729.211 0 .423-.004.632-.022.255.012.573.022.907.022 7.748 0 12.817-3.574 17.29-6.729l.008-.006c3.058-2.154 5.702-4.015 8.767-4.522a28.82 28.82 0 0 1 4.7-.399c2.627 0 4.707.334 6.567.696 1.212.238 2.154.353 2.878.353h.143c1.594 0 2.767-.873 3.216-2.401a41.45 41.45 0 0 0 .716-2.906c.183-.827.474-2.155.744-2.678 5.375-.841 9.489-1.91 12.248-3.188 2.247-1.04 3.63-2.224 4.229-3.611.185-.416.286-.848.312-1.287a2.92 2.92 0 0 0-2.451-3.046z"/><path fill="none" stroke="#33363a" stroke-linecap="round" stroke-linejoin="round" stroke-miterlimit="10" stroke-width="3" d="M29.921 108.439s-6.006 3.539-5.258 6.229M40.571 88.824s2.567-9.723-8.833-14.546M37.323 96.103l.987-1.234M109.854 108.439s6.006 3.539 5.258 6.229M99.204 88.824s-2.567-9.723 8.833-14.546M102.452 96.103l-.986-1.234M112.617 22.027l1.3-1.299M116.738 17.907l-.06.058M100.487 14.042v-1.836M100.486 8.212l.001.086M120.602 34.158h1.839M126.432 34.158h-.084M27.383 22.209l-1.3-1.298M23.262 18.087l.058.061M19.396 34.339h-1.834M13.568 34.34h.085M39.514 14.226v-1.839M39.514 8.394v.086"/></svg>