<svg xmlns="http://www.w3.org/2000/svg" width="140" height="140"><path fill="#fff" d="M21.135 37.349h98.988v69.172H21.135z"/><path fill="#37d660" d="M70 7.913c-34.146 0-62.086 27.938-62.086 62.088 0 34.146 27.939 62.086 62.086 62.086 34.148 0 62.086-27.939 62.086-62.086 0-34.15-27.625-62.088-62.086-62.088zm28.559 89.713c-1.238 1.863-3.414 2.484-5.275 1.242-14.59-9.002-32.906-10.865-54.635-5.895-2.176.619-4.037-.936-4.658-2.797-.621-2.174.932-4.037 2.793-4.656 23.594-5.277 44.082-3.105 60.227 6.828 2.171.934 2.481 3.417 1.548 5.278zm7.451-17.072c-1.549 2.174-4.348 3.102-6.518 1.551-16.765-10.245-42.219-13.348-61.777-7.139-2.48.619-5.277-.621-5.898-3.105-.619-2.482.621-5.275 3.105-5.898 22.662-6.828 50.6-3.414 69.848 8.383 1.859.928 2.792 4.034 1.24 6.208zm8.693-18.938c-1.551 2.174-5.279 3.105-8.074 1.551-19.865-11.793-53.08-13.035-72.018-7.141-3.104.936-6.209-.93-7.139-3.725-.932-3.102.93-6.207 3.725-7.137 22.039-6.518 58.363-5.279 81.334 8.381 2.791 1.552 3.725 5.278 2.172 8.071z"/><path fill="#2cc64d" d="M70 7.913c-34.146 0-62.086 27.938-62.086 62.088 0 34.146 27.939 62.086 62.086 62.086 34.148 0 62.086-27.939 62.086-62.086 0-34.15-27.625-62.088-62.086-62.088zm28.559 89.713c-1.238 1.863-3.414 2.484-5.275 1.242-14.59-9.002-32.906-10.865-54.635-5.895-2.176.619-4.037-.936-4.658-2.797-.621-2.174.932-4.037 2.793-4.656 23.594-5.277 44.082-3.105 60.227 6.828 2.171.934 2.481 3.417 1.548 5.278zm7.451-17.072c-1.549 2.174-4.348 3.102-6.518 1.551-16.765-10.245-42.219-13.348-61.777-7.139-2.48.619-5.277-.621-5.898-3.105-.619-2.482.621-5.275 3.105-5.898 22.662-6.828 50.6-3.414 69.848 8.383 1.859.928 2.792 4.034 1.24 6.208zm8.693-18.938c-1.551 2.174-5.279 3.105-8.074 1.551-19.865-11.793-53.08-13.035-72.018-7.141-3.104.936-6.209-.93-7.139-3.725-.932-3.102.93-6.207 3.725-7.137 22.039-6.518 58.363-5.279 81.334 8.381 2.791 1.552 3.725 5.278 2.172 8.071z"/><path fill="#21d844" d="M70 7.913c-34.146 0-62.086 27.938-62.086 62.088 0 2.141.109 4.256.324 6.342H87.07c-15.463-5.383-34.176-6.195-49.355-1.377-2.48.619-5.277-.621-5.898-3.105-.619-2.482.621-5.275 3.105-5.898 22.662-6.828 50.6-3.414 69.848 8.383.754.377 1.352 1.113 1.695 1.998h25.297c.215-2.086.324-4.201.324-6.342 0-34.151-27.625-62.089-62.086-62.089zm44.703 53.703c-1.551 2.174-5.279 3.105-8.074 1.551-19.865-11.793-53.08-13.035-72.018-7.141-3.104.936-6.209-.93-7.139-3.725-.932-3.102.93-6.207 3.725-7.137 22.039-6.518 58.363-5.279 81.334 8.381 2.791 1.552 3.725 5.278 2.172 8.071z"/><path fill="none" stroke="#33363a" stroke-linecap="round" stroke-linejoin="round" stroke-miterlimit="10" stroke-width="3" d="M70 7.913c-34.146 0-62.086 27.938-62.086 62.088 0 34.146 27.939 62.086 62.086 62.086 34.148 0 62.086-27.939 62.086-62.086 0-34.15-27.625-62.088-62.086-62.088zm27.01 84.436c2.172.934 2.482 3.416 1.549 5.277-1.238 1.863-3.414 2.484-5.275 1.242-14.59-9.002-32.906-10.865-54.635-5.895-2.176.619-4.037-.936-4.658-2.797-.621-2.174.932-4.037 2.793-4.656m67.986-11.175c1.859.93 2.793 4.035 1.24 6.209-1.549 2.174-4.348 3.102-6.518 1.551-16.765-10.245-42.219-13.348-61.777-7.139-2.48.619-5.277-.621-5.898-3.105-.619-2.482.621-5.275 3.105-5.898m77.609-12.417c2.791 1.551 3.725 5.277 2.172 8.07-1.551 2.174-5.279 3.105-8.074 1.551-19.865-11.793-53.08-13.035-72.018-7.141-3.104.936-6.209-.93-7.139-3.725-.932-3.102.93-6.207 3.725-7.137"/><path fill="none" stroke="#33363a" stroke-linecap="round" stroke-linejoin="round" stroke-miterlimit="10" stroke-width="3" d="M70 7.913c-34.146 0-62.086 27.938-62.086 62.088 0 34.146 27.939 62.086 62.086 62.086 34.148 0 62.086-27.939 62.086-62.086 0-34.15-27.625-62.088-62.086-62.088zm27.01 84.436c2.172.934 2.482 3.416 1.549 5.277-1.238 1.863-3.414 2.484-5.275 1.242-14.59-9.002-32.906-10.865-54.635-5.895-2.176.619-4.037-.936-4.658-2.797-.621-2.174.932-4.037 2.793-4.656m67.986-11.175c1.859.93 2.793 4.035 1.24 6.209-1.549 2.174-4.348 3.102-6.518 1.551-16.765-10.245-42.219-13.348-61.777-7.139-2.48.619-5.277-.621-5.898-3.105-.619-2.482.621-5.275 3.105-5.898m77.609-12.417c2.791 1.551 3.725 5.277 2.172 8.07-1.551 2.174-5.279 3.105-8.074 1.551-19.865-11.793-53.08-13.035-72.018-7.141-3.104.936-6.209-.93-7.139-3.725-.932-3.102.93-6.207 3.725-7.137"/></svg>