<svg xmlns="http://www.w3.org/2000/svg" width="140" height="140"><path fill="#24a9e6" d="M129.475 25.884c-4.996 3.028-10.514 5.236-16.411 6.42-4.697-5.148-11.417-8.36-18.852-8.36-14.253 0-25.817 11.858-25.817 26.482 0 2.078.221 4.091.668 6.03-21.472-1.107-40.493-11.639-53.241-27.682a26.96 26.96 0 0 0-3.497 13.333c0 9.186 4.561 17.29 11.492 22.039-4.228-.128-8.219-1.333-11.702-3.304v.328c0 12.837 8.901 23.544 20.726 25.965-2.168.625-4.452.934-6.809.934-1.661 0-3.292-.158-4.861-.468 3.288 10.515 12.82 18.178 24.128 18.382-8.836 7.107-19.982 11.344-32.079 11.344-2.078 0-4.145-.121-6.165-.367 11.435 7.503 25.017 11.89 39.594 11.89 47.515 0 73.489-40.347 73.489-75.35 0-1.147-.027-2.303-.066-3.432a52.957 52.957 0 0 0 12.876-13.705 50.566 50.566 0 0 1-14.834 4.169c5.337-3.277 9.436-8.469 11.361-14.648z"/><path fill="#0a8cdd" d="M21.211 56.223c-3.571-2.446-6.505-5.788-8.518-9.705a26.736 26.736 0 0 0 3.159 8.941c1.728.437 3.519.708 5.359.764zM115.507 32.608a50.55 50.55 0 0 0 12.562-3.209 26.406 26.406 0 0 0 1.406-3.516 51.345 51.345 0 0 1-11.873 5.283c-.676.513-1.372.998-2.095 1.442zM132.946 36.363a50.533 50.533 0 0 1-13.141 3.93 52.684 52.684 0 0 1-2.341 1.852c.039 1.129.066 2.284.066 3.432 0 35.003-25.975 75.35-73.489 75.35a71.525 71.525 0 0 1-23.84-4.081 51.258 51.258 0 0 1-13.148.115c11.435 7.503 25.017 11.89 39.594 11.89 47.515 0 73.489-40.347 73.489-75.35 0-1.147-.027-2.303-.066-3.432a52.961 52.961 0 0 0 12.876-13.706zM19.654 79.865c1.23.185 2.491.28 3.771.28 2.356 0 4.641-.309 6.809-.934-7.734-1.584-14.199-6.726-17.759-13.677a26.646 26.646 0 0 0 7.179 14.331z"/><path fill="#0a8cdd" d="M22.812 87.86a23.914 23.914 0 0 1-1.643-.259c2.177 6.962 7.101 12.657 13.455 15.781a51.782 51.782 0 0 0 8.067-5.323c-8.081-.145-15.242-4.114-19.879-10.199z"/><path fill="#3dc8f9" d="M129.475 25.884c-4.996 3.028-10.514 5.236-16.411 6.42-4.697-5.148-11.417-8.36-18.852-8.36-14.253 0-25.817 11.858-25.817 26.482 0 2.078.221 4.091.668 6.03-17.672-.909-33.678-8.219-45.899-19.717 12.55 13.255 29.771 21.787 48.958 22.776a26.84 26.84 0 0 1-.668-6.026c0-14.628 11.564-26.486 25.82-26.486 7.434 0 14.151 3.214 18.85 8.36"/><path fill="none" stroke="#33363a" stroke-linecap="round" stroke-linejoin="round" stroke-miterlimit="10" stroke-width="3" d="M129.475 25.884c-4.996 3.028-10.514 5.236-16.411 6.42-4.697-5.148-11.417-8.36-18.852-8.36-14.253 0-25.817 11.858-25.817 26.482 0 2.078.221 4.091.668 6.03-21.472-1.107-40.493-11.639-53.241-27.682a26.96 26.96 0 00-3.497 13.333c0 9.186 4.561 17.29 11.492 22.039-4.228-.128-8.219-1.333-11.702-3.304v.328c0 12.837 8.901 23.544 20.726 25.965-2.168.625-4.452.934-6.809.934-1.661 0-3.292-.158-4.861-.468 3.288 10.515 12.82 18.178 24.128 18.382-8.836 7.107-19.982 11.344-32.079 11.344-2.078 0-4.145-.121-6.165-.367 11.435 7.503 25.017 11.89 39.594 11.89 47.515 0 73.489-40.347 73.489-75.35 0-1.147-.027-2.303-.066-3.432a52.957 52.957 0 0012.876-13.705 50.566 50.566 0 01-14.834 4.169c5.337-3.277 9.436-8.469 11.361-14.648zM67.387 56.331c7.22.045 13.761 3.289 18.281 8.477"/><path fill="none" stroke="#33363a" stroke-linecap="round" stroke-linejoin="round" stroke-miterlimit="10" stroke-width="3" d="m65.884 26.84-1.477-1.475M61.203 22.159l.068.07M56.813 40.616h-2.084M50.193 40.617l.099-.001M79.659 17.772v-2.087M79.659 11.15v.097M107.236 36.752a4.75 4.75 0 1 1-9.5 0M30.234 65.535l4.252 1.092M37.651 87.602l4.252 1.092"/></svg>